<svg fill="none" height="49" viewBox="0 0 281 49" width="281" xmlns="http://www.w3.org/2000/svg" xmlns:xlink="http://www.w3.org/1999/xlink"><clipPath id="a"><path d="m0 0h281v48.8373h-281z"/></clipPath><g clip-path="url(#a)" fill="#fff"><path d="m.13916.722656h4.8254c4.85854 0 7.62914 2.273504 7.62914 6.701204 0 2.30665-.6363 4.14934-2.4856 5.35564 1.2793.464 2.4127 1.6704 2.4127 3.8312v6.5289h-4.40117v-8.0534h-3.57928v8.0534h-4.40119zm5.14356 10.751144c1.94872 0 2.83691-1.1003 2.83691-3.72515 0-2.37293-.78214-3.40694-2.5519-3.40694h-1.02738v7.13209z"/><path d="m27.633 10.3732v3.0888c0 6.383-1.8824 10.0418-6.7012 10.0418s-6.6349-3.5461-6.6349-10.0418v-3.049c0-6.49577 1.7764-10.041906 6.6349-10.041906s6.7012 3.473226 6.7012 10.002106zm-6.7012 9.4387c1.9487 0 2.3066-2.0946 2.3066-4.6133v-6.70784c0-2.4127-.285-4.43433-2.3066-4.43433s-2.2337 1.98849-2.2337 4.43433v6.66804c0 2.5519.285 4.6465 2.2337 4.6465z"/><path d="m6.59495 28.9793c-1.77639 0-2.12769 1.7034-2.12769 5.7799v4.8254c0 3.334.31816 5.1435 2.05478 5.1435 1.5245 0 2.05477-1.5974 2.05477-4.0432v-2.2006h4.32829v.57c0 7.026-2.3398 9.3658-6.34992 9.3658-4.54039 0-6.56201594-3.407-6.56201594-10.075v-2.943c0-6.847 2.12768594-10.1082 6.56201594-10.1082 3.97032 0 6.34992 2.1277 6.34992 9.6508v.3911h-4.32829v-2.4458c0-2.2006-.49712-3.9041-1.98849-3.9041z"/><path d="m22.2445 36.959 6.098 11.1024h-4.9646l-4.2222-8.0136v8.0136h-4.1161v-22.4169h4.1161v8.7626l4.3283-8.7626h4.6133z"/><path d="m74.8068 48.0883h-19.2486c-.3712-13.3361-.749-26.6656-1.0473-39.8493h-2.6248c-.3712 13.1108-.8219 26.5132-1.1997 39.8493h-19.1757v-47.339277h8.6897c-.0729 13.336177-.2253 26.665677-.2982 39.849277h3.9703c.3778-13.1836.8219-26.5131 1.1997-39.849277h16.1797c.3778 13.336177.9015 26.665677 1.1997 39.849277h3.9704c-.0729-13.1107-.1525-26.5131-.2983-39.849277h8.6897v47.339277z"/><path d="m78.2469 21.4956c0-14.6088 4.5669-21.4956 13.9326-21.4956 7.4171 0 13.1835 3.36717 13.1835 19.401v5.5413h-17.6045v5.243c0 7.0392.6761 10.8637 4.3415 10.8637 3.2214 0 4.3415-3.3671 4.3415-8.5372v-2.7706h8.9155v1.498c0 12.66-5.243 17.6047-13.1841 17.6047-9.5845 0-13.9327-7.1917-13.9327-21.2702v-6.0649zm18.2013-3.5926v-1.8758c0-4.6464-1.0473-8.23895-4.1958-8.23895-3.4467 0-4.3415 2.77065-4.4939 10.11475z"/><path d="m108.81.749023h10.188c10.26 0 16.107 4.792257 16.107 14.158077 0 4.8651-1.346 8.7626-5.243 11.3078 2.697.9744 5.09 3.5197 5.09 8.0932v13.7802h-9.286v-17.0016h-7.563v17.0016h-9.286v-47.339277zm10.864 22.695277c4.116 0 5.992-2.3199 5.992-7.8678 0-5.0176-1.651-7.19168-5.396-7.19168h-2.174v15.05288h1.571z"/><path d="m151.801 7.78825c-3.745 0-4.494 3.59255-4.494 12.20935v10.1877c0 7.0392.676 10.8637 4.342 10.8637 3.221 0 4.341-3.3671 4.341-8.5372v-4.6464h9.141v1.1997c0 14.8341-4.945 19.7722-13.409 19.7722-9.585 0-13.86-7.1917-13.86-21.2702v-6.2174c0-14.45627 4.494-21.3497 13.86-21.3497 8.391 0 13.409 4.49399 13.409 20.3754v.8219h-9.141v-5.1701c0-4.6464-1.047-8.23895-4.196-8.23895z"/><path d="m186.626 48.0883v-19.6264h-8.689v19.6264h-9.287v-47.339277h9.287v19.997577h8.689v-19.997577h9.287v47.339277z"/><path d="m223.705 8.39145h-8.093v39.69685h-9.214v-39.69685h-8.093v-7.642427h25.393v7.642427z"/><path d="m224.149 21.4956c0-14.6088 4.567-21.4956 13.932-21.4956 7.417 0 13.184 3.36717 13.184 19.401v5.5413h-17.605v5.243c0 7.0392.676 10.8637 4.342 10.8637 3.221 0 4.341-3.3671 4.341-8.5372v-2.7706h8.915v1.498c0 12.66-5.243 17.6047-13.183 17.6047-9.585 0-13.933-7.1917-13.933-21.2702v-6.0649zm18.201-3.5926v-1.8758c0-4.6464-1.047-8.23895-4.196-8.23895-3.446 0-4.341 2.77065-4.494 10.11475z"/><path d="m254.712.749023h10.188c10.26 0 16.106 4.792257 16.106 14.158077 0 4.8651-1.345 8.7626-5.243 11.3078 2.698.9744 5.091 3.5197 5.091 8.0932v13.7802h-9.286v-17.0016h-7.563v17.0016h-9.286v-47.339277zm10.864 22.695277c4.116 0 5.992-2.3199 5.992-7.8678 0-5.0176-1.651-7.19168-5.396-7.19168h-2.174v15.05288h1.571z"/></g></svg>